# Created by Kenney (www.kenney.nl)

mtllib animal-bison.mtl

g torso

v -0.25 0.375 -0.18125 1 1 1
v -0.25 0.6625 -0.18125 1 1 1
v -0.25 0.375 -0.03125 1 1 1
v -0.25 0.6625 0.18125 1 1 1
v -0.25 0.375 0.03125 1 1 1
v -0.25 0.375 0.18125 1 1 1
v -0.25 0.3125 0.03125 1 1 1
v -0.25 0.3125 -0.03125 1 1 1
v -0.125 0.25 0.03125 1 1 1
v -0.125 0.375 0.03125 1 1 1
v -0.125 0.25 0.18125 1 1 1
v -0.125 0.375 0.18125 1 1 1
v 0.1875 0.25 0.03125 1 1 1
v 0.1875 0.25 -0.03125 1 1 1
v 0.125 0.25 0.03125 1 1 1
v 0.125 0.25 -0.03125 1 1 1
v 0.125 0.25 0.18125 1 1 1
v -0.125 0.25 -0.03125 1 1 1
v -0.125 0.25 -0.18125 1 1 1
v 0.125 0.25 -0.18125 1 1 1
v -0.1875 0.25 -0.03125 1 1 1
v -0.1875 0.25 0.03125 1 1 1
v -0.125 0.375 -0.18125 1 1 1
v 0.125 0.375 -0.18125 1 1 1
v 0.25 0.6 -0.18125 1 1 1
v 0.1875 0.6625 -0.18125 1 1 1
v 0.25 0.375 -0.18125 1 1 1
v -0.125 0.375 -0.03125 1 1 1
v 0.125 0.375 0.03125 1 1 1
v 0.125 0.375 0.18125 1 1 1
v 0.1875 0.6625 0.18125 1 1 1
v 0.25 0.375 -0.03125 1 1 1
v 0.125 0.375 -0.03125 1 1 1
v 0.25 0.3125 -0.03125 1 1 1
v 0.25 0.375 0.03125 1 1 1
v 0.25 0.375 0.18125 1 1 1
v 0.25 0.3125 0.03125 1 1 1
v 0.25 0.6 0.18125 1 1 1
v 0.04999991 0.6439375 -0.2058125 1 1 1
v 0.04999991 0.3435625 -0.2058125 1 1 1
v 0.04999991 0.6884375 -0.1613125 1 1 1
v 0.04999991 0.2990625 -0.1613125 1 1 1
v 0.04999991 0.6884375 0.1613125 1 1 1
v 0.04999991 0.2990625 0.1613125 1 1 1
v 0.04999991 0.6439375 0.2058125 1 1 1
v 0.04999991 0.3435625 0.2058125 1 1 1
v -0.2500001 0.325 0.23125 1 1 1
v -0.2500001 0.6625 0.23125 1 1 1
v -0.2500001 0.7125 0.18125 1 1 1
v -0.2500001 0.7125 -0.18125 1 1 1
v -0.2500001 0.6625 -0.23125 1 1 1
v -0.2500001 0.325 -0.23125 1 1 1
v -0.2500001 0.275 -0.18125 1 1 1
v -0.2500001 0.275 0.18125 1 1 1
v -0.3500001 0.3469375 -0.2011875 1 1 1
v -0.3500001 0.6405625 -0.2011875 1 1 1
v -0.3500001 0.3034375 -0.1576875 1 1 1
v -0.3500001 0.6840625 -0.1576875 1 1 1
v -0.3500001 0.3034375 0.1576875 1 1 1
v -0.3500001 0.6840625 0.1576875 1 1 1
v -0.3500001 0.3469375 0.2011875 1 1 1
v -0.3500001 0.6405625 0.2011875 1 1 1

vn -1 0 0
vn -0.9238795 -0.3826834 0
vn 0.3826834 -0.9238795 0
vn 0 -1 0
vn -0.3826834 -0.9238795 0
vn 0 0 -1
vn 1 0 0
vn 0.3826834 0.9238795 0
vn 0 1 0
vn 0 0 1
vn 0.9238795 -0.3826834 0
vn 0.9238795 0.3826834 0
vn 0.101628 -0.3860078 0.9168804
vn 0.101628 0.3860078 0.9168804
vn 0.1013359 -0.3749939 0.921472
vn 0.1013359 0.3749939 0.921472
vn 0.09880958 0.9222687 0.373707
vn 0.09926081 0.9165565 0.3873908
vn 0.09880958 0.9222687 -0.373707
vn 0.09926081 0.9165565 -0.3873908
vn 0.1013359 0.3749939 -0.921472
vn 0.101628 0.3860078 -0.9168804
vn 0.101628 -0.3860078 -0.9168804
vn 0.1013359 -0.3749939 -0.921472
vn 0.09926081 -0.9165565 -0.3873908
vn 0.09880958 -0.9222687 -0.373707
vn 0.09926081 -0.9165565 0.3873908
vn 0.09880958 -0.9222687 0.373707
vn -0.334742 -0.8623316 0.3799105
vn -0.3300797 -0.8819663 0.3364266
vn -0.341381 -0.3751495 0.861813
vn -0.3383861 -0.3401872 0.877364
vn -0.341381 0.3751495 0.861813
vn -0.3383861 0.3401872 0.877364
vn -0.334742 -0.8623316 -0.3799105
vn -0.3300797 -0.8819663 -0.3364266
vn -0.341381 -0.3751495 -0.861813
vn -0.341381 0.3751495 -0.861813
vn -0.3383861 -0.3401872 -0.877364
vn -0.3383861 0.3401872 -0.877364
vn -0.334742 0.8623316 0.3799105
vn -0.3300797 0.8819663 0.3364266
vn -0.334742 0.8623316 -0.3799105
vn -0.3300797 0.8819663 -0.3364266

vt 0.71875 0.105303
vt 0.71875 0.175
vt 0.71875 0.09015151
vt 0.71875 0.075
vt 0.71875 0.1598485
vt 0.71875 0.1093286
vt 0.71875 0.04067143
vt 0.71875 0.1195
vt 0.71875 0.0305
vt 0.71875 0.03642857
vt 0.71875 0.1135714
vt 0.71875 0.125
vt 0.71875 0.025
vt 0.71875 0.04144286
vt 0.71875 0.1085571
vt 0.71875 0.0315
vt 0.71875 0.1185

usemtl colormap

f 3/1/1 2/2/1 1/1/1
f 2/2/1 3/1/1 4/2/1
f 4/2/1 3/1/1 5/1/1
f 4/2/1 5/1/1 6/1/1
f 3/1/1 7/3/2 5/1/1
f 7/3/2 3/1/1 8/3/2
f 11/4/1 10/1/1 9/4/1
f 10/1/1 11/4/1 12/1/1
f 15/4/4 14/4/3 13/4/3
f 14/4/3 15/4/4 16/4/4
f 16/4/4 15/4/4 17/4/4
f 16/4/4 17/4/4 11/4/4
f 16/4/4 11/4/4 18/4/4
f 18/4/4 11/4/4 9/4/4
f 19/4/4 16/4/4 18/4/4
f 16/4/4 19/4/4 20/4/4
f 18/4/4 9/4/4 21/4/5
f 21/4/5 9/4/4 22/4/5
f 2/2/6 23/1/6 1/1/6
f 23/1/6 2/2/6 24/1/6
f 20/4/6 23/1/6 24/1/6
f 23/1/6 20/4/6 19/4/6
f 24/1/6 2/2/6 25/5/6
f 25/5/6 2/2/6 26/2/6
f 25/5/6 27/1/6 24/1/6
f 3/1/4 23/1/4 28/1/4
f 23/1/4 3/1/4 1/1/4
f 30/1/7 15/4/7 29/1/7
f 15/4/7 30/1/7 17/4/7
f 26/2/8 4/2/9 31/2/8
f 4/2/9 26/2/8 2/2/9
f 32/1/4 24/1/4 27/1/4
f 24/1/4 32/1/4 33/1/4
f 6/1/4 10/1/4 12/1/4
f 10/1/4 6/1/4 5/1/4
f 33/1/6 14/4/6 16/4/6
f 14/4/6 33/1/6 34/3/6
f 34/3/6 33/1/6 32/1/6
f 18/4/1 23/1/1 19/4/1
f 23/1/1 18/4/1 28/1/1
f 36/1/4 29/1/4 35/1/4
f 29/1/4 36/1/4 30/1/4
f 10/1/10 22/4/10 9/4/10
f 22/4/10 10/1/10 7/3/10
f 7/3/10 10/1/10 5/1/10
f 34/3/11 35/1/7 37/3/11
f 35/1/7 34/3/11 32/1/7
f 32/1/7 38/5/12 35/1/7
f 35/1/7 38/5/12 36/1/7
f 27/1/7 38/5/12 32/1/7
f 38/5/12 27/1/7 25/5/12
f 13/4/3 34/3/11 37/3/11
f 34/3/11 13/4/3 14/4/3
f 22/4/5 8/3/2 21/4/5
f 8/3/2 22/4/5 7/3/2
f 37/3/10 15/4/10 13/4/10
f 15/4/10 37/3/10 29/1/10
f 29/1/10 37/3/10 35/1/10
f 8/3/6 18/4/6 21/4/6
f 18/4/6 8/3/6 28/1/6
f 28/1/6 8/3/6 3/1/6
f 30/1/10 11/4/10 17/4/10
f 11/4/10 30/1/10 12/1/10
f 12/1/10 30/1/10 36/1/10
f 12/1/10 36/1/10 6/1/10
f 6/1/10 36/1/10 38/5/10
f 6/1/10 38/5/10 4/2/10
f 4/2/10 38/5/10 31/2/10
f 24/1/7 16/4/7 20/4/7
f 16/4/7 24/1/7 33/1/7
f 25/5/12 31/2/8 38/5/12
f 31/2/8 25/5/12 26/2/8
f 41/8/7 40/7/7 39/6/7
f 40/7/7 41/8/7 42/9/7
f 42/9/7 41/8/7 43/8/7
f 42/9/7 43/8/7 44/9/7
f 44/9/7 43/8/7 45/6/7
f 44/9/7 45/6/7 46/7/7
f 46/7/15 48/11/14 47/10/13
f 48/11/14 46/7/15 45/6/16
f 41/8/19 49/12/18 43/8/17
f 49/12/18 41/8/19 50/12/20
f 51/11/22 41/8/19 39/6/21
f 41/8/19 51/11/22 50/12/20
f 51/11/22 40/7/24 52/10/23
f 40/7/24 51/11/22 39/6/21
f 52/10/23 42/9/26 53/13/25
f 42/9/26 52/10/23 40/7/24
f 44/9/28 47/10/13 54/13/27
f 47/10/13 44/9/28 46/7/15
f 43/8/17 48/11/14 45/6/16
f 48/11/14 43/8/17 49/12/18
f 54/13/27 42/9/26 44/9/28
f 42/9/26 54/13/27 53/13/25
f 57/16/1 56/15/1 55/14/1
f 56/15/1 57/16/1 58/17/1
f 58/17/1 57/16/1 59/16/1
f 58/17/1 59/16/1 60/17/1
f 60/17/1 59/16/1 61/14/1
f 60/17/1 61/14/1 62/15/1
f 47/10/31 59/16/30 54/13/29
f 59/16/30 47/10/31 61/14/32
f 48/11/33 61/14/32 47/10/31
f 61/14/32 48/11/33 62/15/34
f 59/16/30 53/13/35 54/13/29
f 53/13/35 59/16/30 57/16/36
f 55/14/39 51/11/38 52/10/37
f 51/11/38 55/14/39 56/15/40
f 50/12/43 60/17/42 49/12/41
f 60/17/42 50/12/43 58/17/44
f 57/16/36 52/10/37 53/13/35
f 52/10/37 57/16/36 55/14/39
f 58/17/44 51/11/38 56/15/40
f 51/11/38 58/17/44 50/12/43
f 48/11/33 60/17/42 62/15/34
f 60/17/42 48/11/33 49/12/41

g leg-back-left

v 0.234375 0 0.03125 1 1 1
v 0.25 0.3125 0.15625 1 1 1
v 0.234375 0 0.15625 1 1 1
v 0.1433058 0.3566942 0.03125 1 1 1
v 0.1433058 0.3566942 0.15625 1 1 1
v 0.125 0.3125 0.03125 1 1 1
v 0.125 0.3125 0.15625 1 1 1
v 0.1875 0.375 0.15625 1 1 1
v 0.1875 0.375 0.03125 1 1 1
v 0.140625 0 0.03125 1 1 1
v 0.2316942 0.3566942 0.03125 1 1 1
v 0.140625 0 0.15625 1 1 1
v 0.2316942 0.3566942 0.15625 1 1 1

vn 0.985352 0.1705328 0
vn 0.9987524 -0.04993761 0
vn -0.7071068 0.7071068 0
vn -0.985352 0.1705328 0
vn -0.9987524 -0.04993761 0
vn 0.7071068 0.7071068 0

vt 0.71875 0.1457107

usemtl colormap

f 64/4/45 63/4/46 37/4/45
f 63/4/46 64/4/45 65/4/46
f 68/4/48 67/18/47 66/18/47
f 67/18/47 68/4/48 69/4/48
f 71/2/9 67/18/47 70/2/9
f 67/18/47 71/2/9 66/18/47
f 68/4/6 63/4/6 72/4/6
f 63/4/6 68/4/6 37/4/6
f 37/4/6 68/4/6 66/18/6
f 37/4/6 66/18/6 73/18/6
f 73/18/6 66/18/6 71/2/6
f 74/4/49 68/4/48 72/4/49
f 68/4/48 74/4/49 69/4/48
f 75/18/50 37/4/45 73/18/50
f 37/4/45 75/18/50 64/4/45
f 73/18/50 70/2/9 75/18/50
f 70/2/9 73/18/50 71/2/9
f 64/4/10 74/4/10 65/4/10
f 74/4/10 64/4/10 69/4/10
f 69/4/10 64/4/10 75/18/10
f 69/4/10 75/18/10 67/18/10
f 67/18/10 75/18/10 70/2/10
f 74/4/4 63/4/4 65/4/4
f 63/4/4 74/4/4 72/4/4

g leg-back-right

v 0.1433058 0.3566942 -0.15625 1 1 1
v 0.1433058 0.3566942 -0.03125 1 1 1
v 0.125 0.3125 -0.15625 1 1 1
v 0.125 0.3125 -0.03125 1 1 1
v 0.140625 0 -0.15625 1 1 1
v 0.140625 0 -0.03125 1 1 1
v 0.234375 0 -0.03125 1 1 1
v 0.2316942 0.3566942 -0.03125 1 1 1
v 0.1875 0.375 -0.03125 1 1 1
v 0.234375 0 -0.15625 1 1 1
v 0.25 0.3125 -0.15625 1 1 1
v 0.1875 0.375 -0.15625 1 1 1
v 0.2316942 0.3566942 -0.15625 1 1 1



usemtl colormap

f 78/4/48 77/18/47 76/18/47
f 77/18/47 78/4/48 79/4/48
f 81/4/49 78/4/48 80/4/49
f 78/4/48 81/4/49 79/4/48
f 34/4/10 81/4/10 82/4/10
f 81/4/10 34/4/10 79/4/10
f 79/4/10 34/4/10 83/18/10
f 79/4/10 83/18/10 77/18/10
f 77/18/10 83/18/10 84/2/10
f 81/4/4 85/4/4 82/4/4
f 85/4/4 81/4/4 80/4/4
f 34/4/45 85/4/46 86/4/45
f 85/4/46 34/4/45 82/4/46
f 87/2/9 77/18/47 84/2/9
f 77/18/47 87/2/9 76/18/47
f 78/4/6 85/4/6 80/4/6
f 85/4/6 78/4/6 86/4/6
f 86/4/6 78/4/6 76/18/6
f 86/4/6 76/18/6 88/18/6
f 88/18/6 76/18/6 87/2/6
f 83/18/50 86/4/45 88/18/50
f 86/4/45 83/18/50 34/4/45
f 88/18/50 84/2/9 83/18/50
f 84/2/9 88/18/50 87/2/9

g leg-front-left

v -0.234375 0 0.03125 1 1 1
v -0.140625 0 0.03125 1 1 1
v -0.125 0.3125 0.03125 1 1 1
v -0.2316942 0.3566942 0.03125 1 1 1
v -0.1433058 0.3566942 0.03125 1 1 1
v -0.1875 0.375 0.03125 1 1 1
v -0.2316942 0.3566942 0.15625 1 1 1
v -0.25 0.3125 0.15625 1 1 1
v -0.1433058 0.3566942 0.15625 1 1 1
v -0.1875 0.375 0.15625 1 1 1
v -0.125 0.3125 0.15625 1 1 1
v -0.234375 0 0.15625 1 1 1
v -0.140625 0 0.15625 1 1 1



usemtl colormap

f 7/4/6 90/4/6 89/4/6
f 90/4/6 7/4/6 91/4/6
f 91/4/6 7/4/6 92/18/6
f 91/4/6 92/18/6 93/18/6
f 93/18/6 92/18/6 94/2/6
f 7/4/48 95/18/47 92/18/47
f 95/18/47 7/4/48 96/4/48
f 93/18/50 98/2/9 97/18/50
f 98/2/9 93/18/50 94/2/9
f 97/18/50 91/4/45 93/18/50
f 91/4/45 97/18/50 99/4/45
f 100/4/49 7/4/48 89/4/49
f 7/4/48 100/4/49 96/4/48
f 99/4/10 100/4/10 101/4/10
f 100/4/10 99/4/10 96/4/10
f 96/4/10 99/4/10 97/18/10
f 96/4/10 97/18/10 95/18/10
f 95/18/10 97/18/10 98/2/10
f 99/4/45 90/4/46 91/4/45
f 90/4/46 99/4/45 101/4/46
f 100/4/4 90/4/4 101/4/4
f 90/4/4 100/4/4 89/4/4
f 94/2/9 95/18/47 98/2/9
f 95/18/47 94/2/9 92/18/47

g leg-front-right

v -0.234375 0 -0.15625 1 1 1
v -0.140625 0 -0.15625 1 1 1
v -0.25 0.3125 -0.15625 1 1 1
v -0.125 0.3125 -0.15625 1 1 1
v -0.2316942 0.3566942 -0.15625 1 1 1
v -0.1433058 0.3566942 -0.15625 1 1 1
v -0.1875 0.375 -0.15625 1 1 1
v -0.1433058 0.3566942 -0.03125 1 1 1
v -0.125 0.3125 -0.03125 1 1 1
v -0.140625 0 -0.03125 1 1 1
v -0.234375 0 -0.03125 1 1 1
v -0.2316942 0.3566942 -0.03125 1 1 1
v -0.1875 0.375 -0.03125 1 1 1



usemtl colormap

f 104/4/6 103/4/6 102/4/6
f 103/4/6 104/4/6 105/4/6
f 105/4/6 104/4/6 106/18/6
f 105/4/6 106/18/6 107/18/6
f 107/18/6 106/18/6 108/2/6
f 109/18/50 105/4/45 107/18/50
f 105/4/45 109/18/50 110/4/45
f 110/4/10 112/4/10 111/4/10
f 112/4/10 110/4/10 8/4/10
f 8/4/10 110/4/10 109/18/10
f 8/4/10 109/18/10 113/18/10
f 113/18/10 109/18/10 114/2/10
f 112/4/49 104/4/48 102/4/49
f 104/4/48 112/4/49 8/4/48
f 110/4/45 103/4/46 105/4/45
f 103/4/46 110/4/45 111/4/46
f 104/4/48 113/18/47 106/18/47
f 113/18/47 104/4/48 8/4/48
f 107/18/50 114/2/9 109/18/50
f 114/2/9 107/18/50 108/2/9
f 108/2/9 113/18/47 114/2/9
f 113/18/47 108/2/9 106/18/47
f 112/4/4 103/4/4 111/4/4
f 103/4/4 112/4/4 102/4/4

g head

v -0.3000002 0.4125 0.09375 1 1 1
v -0.5273318 0.28125 0.09375 1 1 1
v -0.3937502 0.5748798 0.09375 1 1 1
v -0.5898318 0.3895032 0.09375 1 1 1
v -0.5273318 0.28125 -0.09375 1 1 1
v -0.5898318 0.3895032 -0.09375 1 1 1
v -0.3000002 0.4125 -0.09375 1 1 1
v -0.3937502 0.5748798 -0.09375 1 1 1
v -0.4320001 0.4171025 0.09375 1 1 1
v -0.4320001 0.4991025 0.09375 1 1 1
v -0.4217501 0.4273525 0.18395 1 1 1
v -0.4217501 0.4888526 0.18395 1 1 1
v -0.3500001 0.4991025 0.09375 1 1 1
v -0.3602501 0.4888526 0.18395 1 1 1
v -0.3500001 0.4171025 0.09375 1 1 1
v -0.3602501 0.4273525 0.18395 1 1 1
v -0.3500001 0.4991025 -0.09374993 1 1 1
v -0.4320001 0.4991025 -0.09374993 1 1 1
v -0.3602501 0.4888526 -0.1839499 1 1 1
v -0.4217501 0.4888526 -0.1839499 1 1 1
v -0.3602501 0.4273525 -0.1839499 1 1 1
v -0.3500001 0.4171025 -0.09374993 1 1 1
v -0.4217501 0.4273525 -0.1839499 1 1 1
v -0.4320001 0.4171025 -0.09374993 1 1 1
v -0.4343754 0.6452443 -0.08375001 1 1 1
v -0.4343754 0.6452443 -0.02125001 1 1 1
v -0.4614387 0.6296193 -0.08375001 1 1 1
v -0.4614387 0.6296193 -0.02125001 1 1 1
v -0.3875003 0.5640544 -0.02125001 1 1 1
v -0.441627 0.5328044 -0.02125001 1 1 1
v -0.441627 0.5328044 -0.08375001 1 1 1
v -0.3875003 0.5640544 -0.08375001 1 1 1
v -0.4343754 0.6452443 0.02125001 1 1 1
v -0.4343754 0.6452443 0.08375001 1 1 1
v -0.4614387 0.6296193 0.02125001 1 1 1
v -0.4614387 0.6296193 0.08375001 1 1 1
v -0.3875003 0.5640544 0.08375001 1 1 1
v -0.441627 0.5328044 0.08375001 1 1 1
v -0.3875003 0.5640544 0.02125001 1 1 1
v -0.441627 0.5328044 0.02125001 1 1 1

vn -0.8660254 -0.5000001 0
vn -0.9895164 0.1444209 0
vn 0.8660254 0.5000001 0
vn 0.5000001 -0.8660254 0
vn -0.6869924 0.7266646 0
vn -0.9936053 2.961174E-08 0.1129097
vn 2.961174E-08 0.9936053 0.1129097
vn 0.9936053 -2.961174E-08 0.1129097
vn -2.961174E-08 -0.9936053 0.1129097
vn 2.961174E-08 0.9936053 -0.1129097
vn 0.9936053 -2.961174E-08 -0.1129097
vn -2.961174E-08 -0.9936053 -0.1129097
vn -0.9936053 2.961174E-08 -0.1129097
vn -0.5000001 0.8660254 0
vn -0.9741601 0.2258587 0
vn -0.9796977 -0.2004804 0

vt 0.71875 0.1416667
vt 0.71875 0.0848901
vt 0.71875 0.09615384
vt 0.71875 0.1637363
vt 0.96875 0.175
vt 0.96875 0.075

usemtl colormap

f 117/2/10 116/4/10 115/4/10
f 116/4/10 117/2/10 118/19/10
f 116/4/51 120/19/52 119/4/51
f 120/19/52 116/4/51 118/19/52
f 119/4/6 122/2/6 121/4/6
f 122/2/6 119/4/6 120/19/6
f 117/2/53 121/4/53 122/2/53
f 121/4/53 117/2/53 115/4/53
f 116/4/54 121/4/54 115/4/54
f 121/4/54 116/4/54 119/4/54
f 120/19/52 117/2/55 122/2/55
f 117/2/55 120/19/52 118/19/52
f 125/21/56 124/2/56 123/20/56
f 124/2/56 125/21/56 126/22/56
f 124/2/57 128/22/57 127/2/57
f 128/22/57 124/2/57 126/22/57
f 128/22/58 129/20/58 127/2/58
f 129/20/58 128/22/58 130/21/58
f 128/22/10 125/21/10 130/21/10
f 125/21/10 128/22/10 126/22/10
f 130/21/59 123/20/59 129/20/59
f 123/20/59 130/21/59 125/21/59
f 133/22/60 132/2/60 131/2/60
f 132/2/60 133/22/60 134/22/60
f 131/2/61 135/21/61 133/22/61
f 135/21/61 131/2/61 136/20/61
f 134/22/6 135/21/6 137/21/6
f 135/21/6 134/22/6 133/22/6
f 138/20/62 135/21/62 136/20/62
f 135/21/62 138/20/62 137/21/62
f 138/20/63 134/22/63 137/21/63
f 134/22/63 138/20/63 132/2/63
f 141/23/65 140/23/64 139/23/64
f 140/23/64 141/23/65 142/23/65
f 140/23/10 144/24/10 143/24/10
f 144/24/10 140/23/10 142/23/10
f 141/23/6 146/24/6 145/24/6
f 146/24/6 141/23/6 139/23/6
f 144/24/66 141/23/65 145/24/66
f 141/23/65 144/24/66 142/23/65
f 140/23/53 146/24/53 139/23/53
f 146/24/53 140/23/53 143/24/53
f 149/23/65 148/23/64 147/23/64
f 148/23/64 149/23/65 150/23/65
f 148/23/10 152/24/10 151/24/10
f 152/24/10 148/23/10 150/23/10
f 148/23/53 153/24/53 147/23/53
f 153/24/53 148/23/53 151/24/53
f 152/24/66 149/23/65 154/24/66
f 149/23/65 152/24/66 150/23/65
f 149/23/6 153/24/6 154/24/6
f 153/24/6 149/23/6 147/23/6

